# xmcd
#
# Track frame offsets:
#      150
#      12977
#      30854
#      43768
#      61895
#      71897
#      83549
#      96689
#      109391
#      123905
#      134307
#      144534
#      153199
#      162201
#      171790
#      189105
#      202214
#      220019
#      240968
# 
# Disc length: 3418 seconds
#
# Revision: 4
# Processed by: cddbd v1.4PL0 Copyright (c) Steve Scherf et al.
#
# Submitted via: FreeRIP 1.21
#
DISCID=010d5813
DTITLE=Johnny Cash - Timeless Inspiration CD 3 of 3
DYEAR=1997
DGENRE=Gospel
TTITLE0=There'll Be Peace In The Valley
TTITLE1=Were You There (When They Crucified My Lord)
TTITLE2=He Turned The Water Into Wine
TTITLE3=Jesus Was A Carpenter
TTITLE4=The Great Speckled Bird
TTITLE5=I Saw A Man
TTITLE6=Supper-Time
TTITLE7=Welcome Back Jesus
TTITLE8=The Reverend Mr. Black/Lonesuome Valley
TTITLE9=Keep On The Sunny Side
TTITLE10=I'm Just An Old Chunk Of Coal
TTITLE11=Swing Low, Sweet Chariot
TTITLE12=He'll Be A Friend
TTITLE13=It Was Jesus
TTITLE14=These Hands
TTITLE15=Here Was A Man
TTITLE16=I'll Fly Away
TTITLE17=Will The Circle Be Unbroken
TTITLE18=I Saw The Light
EXTD=YEAR: 1997 ID3G: 2
EXTT0=
EXTT1=
EXTT2=
EXTT3=
EXTT4=
EXTT5=
EXTT6=
EXTT7=
EXTT8=
EXTT9=
EXTT10=
EXTT11=
EXTT12=
EXTT13=
EXTT14=
EXTT15=
EXTT16=
EXTT17=
EXTT18=
PLAYORDER=
